HIERARCHY
ROOT reference
{
  OFFSET 0 0 0
  CHANNELS 6 Xposition Yposition Zposition Zrotation Xrotation Yrotation
  JOINT Hips
  {
    OFFSET 349.773 89.4622 219.413
    CHANNELS 3 Zrotation Xrotation Yrotation
    JOINT RightUpLeg
    {
      OFFSET -9.25229 -1.56476 -0.00486621
      CHANNELS 3 Zrotation Xrotation Yrotation
      JOINT RightLeg
      {
        OFFSET 0.0546168 -41.8841 0.068862
        CHANNELS 3 Zrotation Xrotation Yrotation
        JOINT RightFoot
        {
          OFFSET -1.63893 -40.8901 3.53979
          CHANNELS 3 Zrotation Xrotation Yrotation
          End Site
          {
            OFFSET 0 -7.69 17.5
          }
        }
      }
    }
    JOINT LeftUpLeg
    {
      OFFSET 9.30241 -1.63853 -0.0284428
      CHANNELS 3 Zrotation Xrotation Yrotation
      JOINT LeftLeg
      {
        OFFSET 0.0539686 -41.842 -0.0517406
        CHANNELS 3 Zrotation Xrotation Yrotation
        JOINT LeftFoot
        {
          OFFSET 1.12518 -42.5382 -2.5849
          CHANNELS 3 Zrotation Xrotation Yrotation
          End Site
          {
            OFFSET 0 -7.69 17.5
          }
        }
      }
    }
    JOINT Spine
    {
      OFFSET 0.0144198 14.3187 0.0981135
      CHANNELS 3 Zrotation Xrotation Yrotation
      JOINT Spine1
      {
        OFFSET 0.0112165 9.7169 0.0514987
        CHANNELS 3 Zrotation Xrotation Yrotation
        JOINT Spine2
        {
          OFFSET 0.0255827 10.1205 -0.00638435
          CHANNELS 3 Zrotation Xrotation Yrotation
          JOINT Spine3
          {
            OFFSET -0.00190646 9.72552 0.024249
            CHANNELS 3 Zrotation Xrotation Yrotation
            JOINT Neck
            {
              OFFSET -0.136438 10.3681 0.0553958
              CHANNELS 3 Zrotation Xrotation Yrotation
              JOINT Head
              {
                OFFSET 0.0264476 9.5071 0.170402
                CHANNELS 3 Zrotation Xrotation Yrotation
                End Site
                {
                  OFFSET 0 15.95 0
                }
              }
            }
            JOINT RightShoulder
            {
              OFFSET -3.1747 6.92483 0.00547946
              CHANNELS 3 Zrotation Xrotation Yrotation
              JOINT RightArm
              {
                OFFSET -12.7755 -0.0136287 0.0362428
                CHANNELS 3 Zrotation Xrotation Yrotation
                JOINT RightForeArm
                {
                  OFFSET -26.5642 -0.108975 -0.0233747
                  CHANNELS 3 Zrotation Xrotation Yrotation
                  JOINT RightHand
                  {
                    OFFSET -25.905 -0.185223 0.00356295
                    CHANNELS 3 Zrotation Xrotation Yrotation
                    JOINT RightHandThumb1
                    {
                      OFFSET -2.48905 0.190105 3.12053
                      CHANNELS 3 Zrotation Xrotation Yrotation
                      JOINT RightHandThumb2
                      {
                        OFFSET -3.68274 0 0
                        CHANNELS 3 Zrotation Xrotation Yrotation
                        JOINT RightHandThumb3
                        {
                          OFFSET -2.55832 0 0
                          CHANNELS 3 Zrotation Xrotation Yrotation
                          End Site
                          {
                            OFFSET -2.194 0 0
                          }
                        }
                      }
                    }
                    JOINT RightInHandIndex
                    {
                      OFFSET -3.22368 0.508421 1.97842
                      CHANNELS 3 Zrotation Xrotation Yrotation
                      JOINT RightHandIndex1
                      {
                        OFFSET -5.21684 -0.091368 0.999158
                        CHANNELS 3 Zrotation Xrotation Yrotation
                        JOINT RightHandIndex2
                        {
                          OFFSET -3.61937 0 0
                          CHANNELS 3 Zrotation Xrotation Yrotation
                          JOINT RightHandIndex3
                          {
                            OFFSET -2.0521 0 0
                            CHANNELS 3 Zrotation Xrotation Yrotation
                            End Site
                            {
                              OFFSET -1.805 0 0
                            }
                          }
                        }
                      }
                    }
                    JOINT RightInHandMiddle
                    {
                      OFFSET -3.38211 0.517263 0.756737
                      CHANNELS 3 Zrotation Xrotation Yrotation
                      JOINT RightHandMiddle1
                      {
                        OFFSET -5.17411 -0.084 0.313895
                        CHANNELS 3 Zrotation Xrotation Yrotation
                        JOINT RightHandMiddle2
                        {
                          OFFSET -3.94947 0 0
                          CHANNELS 3 Zrotation Xrotation Yrotation
                          JOINT RightHandMiddle3
                          {
                            OFFSET -2.47579 0 0
                            CHANNELS 3 Zrotation Xrotation Yrotation
                            End Site
                            {
                              OFFSET -1.975 0 0
                            }
                          }
                        }
                      }
                    }
                    JOINT RightInHandRing
                    {
                      OFFSET -3.36516 0.537895 -0.128947
                      CHANNELS 3 Zrotation Xrotation Yrotation
                      JOINT RightHandRing1
                      {
                        OFFSET -4.63474 -0.022105 -0.478947
                        CHANNELS 3 Zrotation Xrotation Yrotation
                        JOINT RightHandRing2
                        {
                          OFFSET -3.44238 0 0
                          CHANNELS 3 Zrotation Xrotation Yrotation
                          JOINT RightHandRing3
                          {
                            OFFSET -2.3881 0 0
                            CHANNELS 3 Zrotation Xrotation Yrotation
                            End Site
                            {
                              OFFSET -1.857 0 0
                            }
                          }
                        }
                      }
                    }
                    JOINT RightInHandPinky
                    {
                      OFFSET -3.16105 0.469368 -1.20179
                      CHANNELS 3 Zrotation Xrotation Yrotation
                      JOINT RightHandPinky1
                      {
                        OFFSET -4.14105 -0.022105 -1.09053
                        CHANNELS 3 Zrotation Xrotation Yrotation
                        JOINT RightHandPinky2
                        {
                          OFFSET -2.75653 0 0
                          CHANNELS 3 Zrotation Xrotation Yrotation
                          JOINT RightHandPinky3
                          {
                            OFFSET -1.74189 0 0
                            CHANNELS 3 Zrotation Xrotation Yrotation
                            End Site
                            {
                              OFFSET -1.645 0 0
                            }
                          }
                        }
                      }
                    }
                  }
                }
              }
            }
            JOINT LeftShoulder
            {
              OFFSET 3.23079 6.93624 -0.032633
              CHANNELS 3 Zrotation Xrotation Yrotation
              JOINT LeftArm
              {
                OFFSET 12.8235 -0.00564763 -0.0637926
                CHANNELS 3 Zrotation Xrotation Yrotation
                JOINT LeftForeArm
                {
                  OFFSET 26.4641 -0.00020372 -0.0407631
                  CHANNELS 3 Zrotation Xrotation Yrotation
                  JOINT LeftHand
                  {
                    OFFSET 25.9912 -0.0207868 -0.0178714
                    CHANNELS 3 Zrotation Xrotation Yrotation
                    JOINT LeftHandThumb1
                    {
                      OFFSET 2.48905 0.190105 3.12053
                      CHANNELS 3 Zrotation Xrotation Yrotation
                      JOINT LeftHandThumb2
                      {
                        OFFSET 3.68274 0 0
                        CHANNELS 3 Zrotation Xrotation Yrotation
                        JOINT LeftHandThumb3
                        {
                          OFFSET 2.55832 0 0
                          CHANNELS 3 Zrotation Xrotation Yrotation
                          End Site
                          {
                            OFFSET 2.194 0 0
                          }
                        }
                      }
                    }
                    JOINT LeftInHandIndex
                    {
                      OFFSET 3.22368 0.508421 1.97842
                      CHANNELS 3 Zrotation Xrotation Yrotation
                      JOINT LeftHandIndex1
                      {
                        OFFSET 5.21684 -0.091368 0.999158
                        CHANNELS 3 Zrotation Xrotation Yrotation
                        JOINT LeftHandIndex2
                        {
                          OFFSET 3.61937 0 0
                          CHANNELS 3 Zrotation Xrotation Yrotation
                          JOINT LeftHandIndex3
                          {
                            OFFSET 2.0521 0 0
                            CHANNELS 3 Zrotation Xrotation Yrotation
                            End Site
                            {
                              OFFSET 1.805 0 0
                            }
                          }
                        }
                      }
                    }
                    JOINT LeftInHandMiddle
                    {
                      OFFSET 3.38211 0.517263 0.756737
                      CHANNELS 3 Zrotation Xrotation Yrotation
                      JOINT LeftHandMiddle1
                      {
                        OFFSET 5.17411 -0.084 0.313895
                        CHANNELS 3 Zrotation Xrotation Yrotation
                        JOINT LeftHandMiddle2
                        {
                          OFFSET 3.94947 0 0
                          CHANNELS 3 Zrotation Xrotation Yrotation
                          JOINT LeftHandMiddle3
                          {
                            OFFSET 2.47579 0 0
                            CHANNELS 3 Zrotation Xrotation Yrotation
                            End Site
                            {
                              OFFSET 1.975 0 0
                            }
                          }
                        }
                      }
                    }
                    JOINT LeftInHandRing
                    {
                      OFFSET 3.36516 0.537895 -0.128947
                      CHANNELS 3 Zrotation Xrotation Yrotation
                      JOINT LeftHandRing1
                      {
                        OFFSET 4.63474 -0.022105 -0.478947
                        CHANNELS 3 Zrotation Xrotation Yrotation
                        JOINT LeftHandRing2
                        {
                          OFFSET 3.44238 0 0
                          CHANNELS 3 Zrotation Xrotation Yrotation
                          JOINT LeftHandRing3
                          {
                            OFFSET 2.3881 0 0
                            CHANNELS 3 Zrotation Xrotation Yrotation
                            End Site
                            {
                              OFFSET 1.857 0 0
                            }
                          }
                        }
                      }
                    }
                    JOINT LeftInHandPinky
                    {
                      OFFSET 3.16105 0.469368 -1.20179
                      CHANNELS 3 Zrotation Xrotation Yrotation
                      JOINT LeftHandPinky1
                      {
                        OFFSET 4.14105 -0.022105 -1.09053
                        CHANNELS 3 Zrotation Xrotation Yrotation
                        JOINT LeftHandPinky2
                        {
                          OFFSET 2.75653 0 0
                          CHANNELS 3 Zrotation Xrotation Yrotation
                          JOINT LeftHandPinky3
                          {
                            OFFSET 1.74189 0 0
                            CHANNELS 3 Zrotation Xrotation Yrotation
                            End Site
                            {
                              OFFSET 1.645 0 0
                            }
                          }
                        }
                      }
                    }
                  }
                }
              }
            }
          }
        }
      }
    }
  }
}
MOTION
Frames: 2
Frame Time: 0.00833333
7.500000000000000000e+02 0.000000000000000000e+00 0.000000000000000000e+00 0.000000000000000000e+00 0.000000000000000000e+00 0.000000000000000000e+00 3.294858533502354803e+00 6.736269908991630473e+00 1.858384430963716127e+01 -3.114719871904534187e+01 -1.273251095005620570e+01 -2.003559865691205744e+01 6.451413476697092086e+00 2.427698638400618947e+00 -9.982367116058604495e+00 -4.077817366869351368e+00 -4.612277587746024921e+00 -1.279845705602858885e+01 1.008295827534267275e+00 -1.443319738865973001e+01 3.266350969492466838e+00 7.366588055436869453e+00 -2.061116627516939559e+01 -1.675582180155247158e+01 -5.550701927149265913e+00 1.084992550642657783e+01 -4.776467742885005308e+00 -3.827493988363494193e+00 9.510093065400642587e+00 2.736020816647684128e+01 -4.900180223469295937e-01 2.763903333959638609e+00 6.927379711166061327e+00 -9.313481363645101929e-01 4.553845774606476660e+00 1.166377679940432266e+01 5.988366600718187938e-01 -1.066076932978204661e-01 -3.343077701616160802e+00 1.111361429370103071e+00 3.243159369574736495e+00 -2.134343446367569186e+01 1.123260579091193634e+01 -1.069126207352266889e+01 -5.304582375441511743e+01 -1.117180611764164766e+01 -1.217033952389626528e+01 2.091285573491663285e+01 -7.515473260692024482e+00 1.873644919867013314e+01 5.336658500794341364e+01 -6.137973318166107362e+00 2.396289450733521509e+00 -1.285810145512255644e+02 2.841518325869200012e+01 -8.285821590128910064e-01 -6.696558884956345992e+01 0.000000000000000000e+00 0.000000000000000000e+00 0.000000000000000000e+00 -2.509820070492277420e-15 5.090459515202660316e-15 0.000000000000000000e+00 3.433703816856255054e-15 7.787054974317687464e-15 0.000000000000000000e+00 6.120847981759295131e-15 5.642693591257173245e-15 -5.436347304699427199e-15 0.000000000000000000e+00 0.000000000000000000e+00 0.000000000000000000e+00 0.000000000000000000e+00 1.543767065312529941e-14 3.435983843934396011e-14 0.000000000000000000e+00 1.001075286800907905e-14 3.254358738224541410e-14 6.120847981759295131e-15 5.642693591257173245e-15 -5.436347304699427199e-15 0.000000000000000000e+00 -6.151143221978259044e-15 -1.433100215377501652e-14 0.000000000000000000e+00 1.535429157063367084e-14 2.239415587009144571e-14 0.000000000000000000e+00 5.705409395816856655e-15 4.140593105714404990e-15 6.120847981759295131e-15 5.642693591257173245e-15 -5.436347304699427199e-15 0.000000000000000000e+00 0.000000000000000000e+00 0.000000000000000000e+00 0.000000000000000000e+00 -7.867720948095673017e-15 1.261223091851665284e-14 0.000000000000000000e+00 1.031177018958832415e-14 2.106208845836614928e-14 6.120847981759295131e-15 5.642693591257173245e-15 -5.436347304699427199e-15 0.000000000000000000e+00 0.000000000000000000e+00 0.000000000000000000e+00 0.000000000000000000e+00 1.671353103117349987e-16 2.219417130317547877e-14 0.000000000000000000e+00 3.431712720087628452e-15 7.562909740325857840e-16 1.069822123243624468e+01 -9.961071469076234308e+00 4.830226563906004245e+00 -3.116721261124178000e+01 2.657978955138037591e+01 4.415158259378611660e+01 -1.501584422597428556e+02 -7.610231867488995761e+01 -1.052318346949917895e+02 1.475597562705078403e+01 -1.649682999382374504e+01 1.766270621088070758e+00 0.000000000000000000e+00 0.000000000000000000e+00 0.000000000000000000e+00 -1.802439259584153210e-14 1.327348565768199401e-14 0.000000000000000000e+00 5.318762735190392340e-16 1.241887137604965944e-14 0.000000000000000000e+00 1.290607331807979826e-15 8.790643557161911715e-16 -1.483575841835528160e-15 0.000000000000000000e+00 0.000000000000000000e+00 0.000000000000000000e+00 0.000000000000000000e+00 -7.404587255825915660e-15 -6.297371273404689528e-15 0.000000000000000000e+00 2.405270756083673604e-15 -3.601460366526037108e-15 1.290607331807979826e-15 8.790643557161911715e-16 -1.483575841835528160e-15 0.000000000000000000e+00 -9.028584431085574826e-15 -7.037397363654004512e-15 0.000000000000000000e+00 -5.682249785341340534e-15 5.651905246329352937e-15 0.000000000000000000e+00 -1.084649962164265602e-14 9.217089882328172363e-15 1.290607331807979826e-15 8.790643557161911715e-16 -1.483575841835528160e-15 0.000000000000000000e+00 0.000000000000000000e+00 0.000000000000000000e+00 0.000000000000000000e+00 -5.344293583980458869e-15 1.880692497639362358e-14 0.000000000000000000e+00 -6.804896390918150924e-15 4.253172634260040547e-15 1.290607331807979826e-15 8.790643557161911715e-16 -1.483575841835528160e-15 0.000000000000000000e+00 0.000000000000000000e+00 0.000000000000000000e+00 0.000000000000000000e+00 8.211076183297276866e-15 -4.676009107636542151e-15 0.000000000000000000e+00 -8.648278398741164637e-15 -3.342917391123888921e-15
7.500000000000000000e+02 0.000000000000000000e+00 0.000000000000000000e+00 0.000000000000000000e+00 0.000000000000000000e+00 0.000000000000000000e+00 3.308824383629076493e+00 6.760250896281719157e+00 1.852535643383380659e+01 -3.112295519119406606e+01 -1.277139709159808945e+01 -1.998081198176463857e+01 6.451652925119859994e+00 2.411851134423658838e+00 -9.977553767070897806e+00 -4.082858374512799315e+00 -4.616286235457045528e+00 -1.282287622835022844e+01 1.081958812405093617e+00 -1.445169893600443345e+01 3.347211171655219530e+00 7.351915850954184428e+00 -2.064778689258249145e+01 -1.676416660836857275e+01 -5.549694018303860332e+00 1.085466248537974465e+01 -4.764194023869861461e+00 -3.834007053202737936e+00 9.505193865881658155e+00 2.737115455719962043e+01 -4.909982951932483908e-01 2.763460630041346899e+00 6.930266289539575020e+00 -9.332171772106454544e-01 4.553522735950461531e+00 1.167034138830037904e+01 6.005326760514428930e-01 -1.069985914791639486e-01 -3.346131597479080177e+00 1.113711190292203668e+00 3.244634994815036588e+00 -2.131637463344668504e+01 1.126772378496183613e+01 -1.069809716014264644e+01 -5.312852519503812943e+01 -1.118462688990436504e+01 -1.218241575210093686e+01 2.091840616425604082e+01 -7.579585932113886315e+00 1.870088188600538359e+01 5.344482602031573037e+01 -6.223758237337658983e+00 2.527251912820877244e+00 -1.288970295783749691e+02 2.847359927755049824e+01 -8.486953277352382585e-01 -6.709561315821548533e+01 0.000000000000000000e+00 0.000000000000000000e+00 0.000000000000000000e+00 -2.417050223193165036e-15 5.059342317403269742e-15 0.000000000000000000e+00 3.522122359915917779e-15 7.797309006915414099e-15 0.000000000000000000e+00 6.163165116022966040e-15 5.652272550433243371e-15 -5.430903563338128133e-15 0.000000000000000000e+00 0.000000000000000000e+00 0.000000000000000000e+00 0.000000000000000000e+00 1.543702033135275453e-14 3.442637916755108394e-14 0.000000000000000000e+00 1.004073328827311047e-14 3.247520990148761361e-14 6.163165116022966040e-15 5.652272550433243371e-15 -5.430903563338128133e-15 0.000000000000000000e+00 -6.224631659390750134e-15 -1.428956938982245118e-14 0.000000000000000000e+00 1.536952216478279674e-14 2.234899467403414026e-14 0.000000000000000000e+00 5.724239388348043436e-15 4.253062288771518066e-15 6.163165116022966040e-15 5.652272550433243371e-15 -5.430903563338128133e-15 0.000000000000000000e+00 0.000000000000000000e+00 0.000000000000000000e+00 0.000000000000000000e+00 -7.826393676294295017e-15 1.269533770235868044e-14 0.000000000000000000e+00 1.019631642353253239e-14 2.100811304874284360e-14 6.163165116022966040e-15 5.652272550433243371e-15 -5.430903563338128133e-15 0.000000000000000000e+00 0.000000000000000000e+00 0.000000000000000000e+00 0.000000000000000000e+00 2.788124383362681358e-16 2.220573794837677963e-14 0.000000000000000000e+00 3.245393681147135293e-15 7.868807483380617086e-16 1.071160060176373463e+01 -9.999299749693799200e+00 4.802326741363751594e+00 -3.118203511443770637e+01 2.667367731593267877e+01 4.418731964435249893e+01 -1.506017353836024881e+02 -7.629045255627842437e+01 -1.056208802667038782e+02 1.476166517977689807e+01 -1.649350741116014873e+01 1.728370489305637303e+00 0.000000000000000000e+00 0.000000000000000000e+00 0.000000000000000000e+00 -1.808104675431469328e-14 1.332182399229251821e-14 0.000000000000000000e+00 4.529367686930018511e-16 1.241537524602069083e-14 0.000000000000000000e+00 1.412393971065877632e-15 8.171200569274702378e-16 -1.494918645134332057e-15 0.000000000000000000e+00 0.000000000000000000e+00 0.000000000000000000e+00 0.000000000000000000e+00 -7.308747282201209846e-15 -5.997171107476455442e-15 0.000000000000000000e+00 2.350441220993824487e-15 -3.696420388416775243e-15 1.412393971065877632e-15 8.171200569274702378e-16 -1.494918645134332057e-15 0.000000000000000000e+00 -9.069012308692064476e-15 -7.022453176655007866e-15 0.000000000000000000e+00 -5.678862149965346674e-15 5.788071797279373226e-15 0.000000000000000000e+00 -1.084996774576451142e-14 9.217006230049868777e-15 1.412393971065877632e-15 8.171200569274702378e-16 -1.494918645134332057e-15 0.000000000000000000e+00 0.000000000000000000e+00 0.000000000000000000e+00 0.000000000000000000e+00 -5.460581617959126691e-15 1.867164987497082282e-14 0.000000000000000000e+00 -6.836015361561441540e-15 4.206409499610409743e-15 1.412393971065877632e-15 8.171200569274702378e-16 -1.494918645134332057e-15 0.000000000000000000e+00 0.000000000000000000e+00 0.000000000000000000e+00 0.000000000000000000e+00 8.309209299531710185e-15 -4.725884566088422310e-15 0.000000000000000000e+00 -8.613819484652876064e-15 -3.415731782261941563e-15
